@startuml

skinparam classAttributeIconSize 0
skinparam classFontSize 13
skinparam shadowing false

skinparam class {
    BackgroundColor<<Aggregate Root>> #E3F2FD
    BorderColor<<Aggregate Root>> #1565C0
    FontColor<<Aggregate Root>> #1565C0
    HeaderBackgroundColor<<Aggregate Root>> #BBDEFB

    BackgroundColor<<Entity>> #FFF8E1
    BorderColor<<Entity>> #F57F17
    FontColor<<Entity>> #F57F17
    HeaderBackgroundColor<<Entity>> #FFE082

    BackgroundColor<<Value Object>> #F1F8E9
    BorderColor<<Value Object>> #558B2F
    FontColor<<Value Object>> #558B2F
    HeaderBackgroundColor<<Value Object>> #DCEDC8
}

skinparam package {
    BackgroundColor #FAFAFA
    BorderColor #BDBDBD
    BorderStyle dashed
    FontSize 14
}


skinparam ArrowColor #444441

package "Aircraft Aggregate" <<Frame>> {

    class Aircraft <<Aggregate Root>> {
        - registration : AircraftRegistration
        - country : Country
        - operationalStatus : OperationalStatus
        - numCrewElements : int
        - cabinConfiguration : CabinConfiguration
        - aircraftModelID : AircraftModelID
        - airTransportCompanyIataCode  : IataCode

    }

    class AircraftRegistration <<Value Object>>{
        - registration : String
    }

    class CabinConfiguration <<Value Object>> {
        - seatsPerClass : Map<SeatClass, Integer>
    }

    enum SeatClass <<Value Object>> {
        ECONOMY
        BUSINESS
        FIRST
    }

    enum OperationalStatus <<Value Object>> {
        ACTIVE
        DECOMMISSIONED
    }

    class Country <<Value Object>>{
        - isoCode : IsoCode
        - name : String
    }

    class IsoCode <<Value Object>>{
       - code : String
    }

    class IataCode <<Value Object>>{
      - code : String
    }
}
Aircraft *-- CabinConfiguration
Aircraft --> OperationalStatus
Aircraft --> SeatClass
Aircraft *-- AircraftRegistration
Aircraft *-- Country
Aircraft *-- IataCode
Country *-- IsoCode

@enduml