@startuml

skinparam classAttributeIconSize 0
skinparam classFontSize 13
skinparam shadowing false

skinparam class {
    BackgroundColor<<Aggregate Root>> #E3F2FD
    BorderColor<<Aggregate Root>> #1565C0
    FontColor<<Aggregate Root>> #1565C0
    HeaderBackgroundColor<<Aggregate Root>> #BBDEFB

    BackgroundColor<<Entity>> #FFF8E1
    BorderColor<<Entity>> #F57F17
    FontColor<<Entity>> #F57F17
    HeaderBackgroundColor<<Entity>> #FFE082

    BackgroundColor<<Value Object>> #F1F8E9
    BorderColor<<Value Object>> #558B2F
    FontColor<<Value Object>> #558B2F
    HeaderBackgroundColor<<Value Object>> #DCEDC8
}

skinparam package {
    BackgroundColor #FAFAFA
    BorderColor #BDBDBD
    BorderStyle dashed
    FontSize 14
}


skinparam ArrowColor #444441

package "AircraftModel Aggregate" <<Frame>> {

    class AircraftModel <<Aggregate Root>> {
        - modelID : AircraftModelID
        - type : AircraftType
        - emptyWeight : double
        - mtow : double
        - mzfw : double
        - maxFuelCapacity : double
        - serviceCeiling : double
        - cruiseSpeed : double
        - wingArea : double
        - dragCoefficient : double
        - liftCoefficient : double
        - maximumRange : double
        - maxPassengerCapacity : int
        - certifiedEngineModelIDs : Set<EngineModelID>
        - engineNumber : int
        - makerID : MakerID
    }

    class AircraftModelID <<Value Object>>{
        - number : String
    }

    enum AircraftType <<Value Object>> {
        PASSENGER
        CARGO
        MIXED
    }
AircraftModel *-- AircraftModelID
AircraftModel --> AircraftType

}
@enduml